<mxfile host="app.diagrams.net" agent="Mozilla/5.0 (X11; Linux x86_64; rv:128.0) Gecko/20100101 Firefox/128.0" version="26.1.1">
  <diagram name="Page-1" id="bPspRDd9oAN_ojT4kMsU">
    <mxGraphModel dx="880" dy="463" grid="1" gridSize="10" guides="1" tooltips="1" connect="1" arrows="1" fold="1" page="1" pageScale="1" pageWidth="850" pageHeight="1100" math="0" shadow="0">
      <root>
        <mxCell id="0" />
        <mxCell id="1" parent="0" />
        <mxCell id="L70rGHR2-HND5t8MJKq0-1" value="Організатор" style="shape=umlActor;verticalLabelPosition=bottom;verticalAlign=top;html=1;outlineConnect=0;" vertex="1" parent="1">
          <mxGeometry x="170" y="140" width="30" height="60" as="geometry" />
        </mxCell>
        <mxCell id="L70rGHR2-HND5t8MJKq0-2" value="Виборець" style="shape=umlActor;verticalLabelPosition=bottom;verticalAlign=top;html=1;outlineConnect=0;" vertex="1" parent="1">
          <mxGeometry x="170" y="240" width="30" height="60" as="geometry" />
        </mxCell>
        <mxCell id="L70rGHR2-HND5t8MJKq0-4" value="Застосунок" style="swimlane;whiteSpace=wrap;html=1;" vertex="1" parent="1">
          <mxGeometry x="270" y="30" width="410" height="410" as="geometry" />
        </mxCell>
        <mxCell id="L70rGHR2-HND5t8MJKq0-5" value="&lt;div&gt;Створити&lt;/div&gt;&lt;div&gt;голосування&lt;br&gt;&lt;/div&gt;" style="ellipse;whiteSpace=wrap;html=1;" vertex="1" parent="L70rGHR2-HND5t8MJKq0-4">
          <mxGeometry x="50" y="50" width="120" height="80" as="geometry" />
        </mxCell>
        <mxCell id="L70rGHR2-HND5t8MJKq0-6" value="Проголосувати" style="ellipse;whiteSpace=wrap;html=1;" vertex="1" parent="L70rGHR2-HND5t8MJKq0-4">
          <mxGeometry x="50" y="290" width="120" height="80" as="geometry" />
        </mxCell>
        <mxCell id="L70rGHR2-HND5t8MJKq0-7" value="Переглянути результати голосування" style="ellipse;whiteSpace=wrap;html=1;" vertex="1" parent="L70rGHR2-HND5t8MJKq0-4">
          <mxGeometry x="50" y="170" width="120" height="80" as="geometry" />
        </mxCell>
        <mxCell id="L70rGHR2-HND5t8MJKq0-8" value="Ввести необхідні дані" style="ellipse;whiteSpace=wrap;html=1;" vertex="1" parent="L70rGHR2-HND5t8MJKq0-4">
          <mxGeometry x="250" y="50" width="120" height="80" as="geometry" />
        </mxCell>
        <mxCell id="L70rGHR2-HND5t8MJKq0-9" value="&amp;lt;&amp;lt;include&amp;gt;&amp;gt;" style="html=1;verticalAlign=bottom;endArrow=open;dashed=1;endSize=8;curved=0;rounded=0;" edge="1" parent="L70rGHR2-HND5t8MJKq0-4" source="L70rGHR2-HND5t8MJKq0-8" target="L70rGHR2-HND5t8MJKq0-5">
          <mxGeometry relative="1" as="geometry">
            <mxPoint x="350" y="220" as="sourcePoint" />
            <mxPoint x="270" y="220" as="targetPoint" />
          </mxGeometry>
        </mxCell>
        <mxCell id="L70rGHR2-HND5t8MJKq0-16" value="Вибрати варіант" style="ellipse;whiteSpace=wrap;html=1;" vertex="1" parent="L70rGHR2-HND5t8MJKq0-4">
          <mxGeometry x="250" y="290" width="120" height="80" as="geometry" />
        </mxCell>
        <mxCell id="L70rGHR2-HND5t8MJKq0-18" value="&amp;lt;&amp;lt;include&amp;gt;&amp;gt;" style="html=1;verticalAlign=bottom;endArrow=open;dashed=1;endSize=8;curved=0;rounded=0;" edge="1" parent="L70rGHR2-HND5t8MJKq0-4" source="L70rGHR2-HND5t8MJKq0-16" target="L70rGHR2-HND5t8MJKq0-6">
          <mxGeometry relative="1" as="geometry">
            <mxPoint x="260" y="100" as="sourcePoint" />
            <mxPoint x="180" y="100" as="targetPoint" />
          </mxGeometry>
        </mxCell>
        <mxCell id="L70rGHR2-HND5t8MJKq0-12" value="" style="endArrow=none;html=1;rounded=0;" edge="1" parent="1" source="L70rGHR2-HND5t8MJKq0-5" target="L70rGHR2-HND5t8MJKq0-1">
          <mxGeometry width="50" height="50" relative="1" as="geometry">
            <mxPoint x="100" y="470" as="sourcePoint" />
            <mxPoint x="150" y="420" as="targetPoint" />
          </mxGeometry>
        </mxCell>
        <mxCell id="L70rGHR2-HND5t8MJKq0-13" value="" style="endArrow=none;html=1;rounded=0;" edge="1" parent="1" source="L70rGHR2-HND5t8MJKq0-2" target="L70rGHR2-HND5t8MJKq0-6">
          <mxGeometry width="50" height="50" relative="1" as="geometry">
            <mxPoint x="110" y="460" as="sourcePoint" />
            <mxPoint x="160" y="410" as="targetPoint" />
          </mxGeometry>
        </mxCell>
        <mxCell id="L70rGHR2-HND5t8MJKq0-14" value="" style="endArrow=none;html=1;rounded=0;" edge="1" parent="1" source="L70rGHR2-HND5t8MJKq0-2" target="L70rGHR2-HND5t8MJKq0-7">
          <mxGeometry width="50" height="50" relative="1" as="geometry">
            <mxPoint x="110" y="460" as="sourcePoint" />
            <mxPoint x="160" y="410" as="targetPoint" />
          </mxGeometry>
        </mxCell>
      </root>
    </mxGraphModel>
  </diagram>
</mxfile>
